<svg height="368pt" preserveAspectRatio="xMidYMid meet" viewBox="0 0 368 368" width="368pt" xmlns="http://www.w3.org/2000/svg"><path d="m0 1840v-1840h1840 1840v1840 1840h-1840-1840zm1631 773c29-61 47-84 34-43-8 25 11 84 32 102 15 12 15 11 5-9-19-36-14-89 11-118 21-25 30-27 132-34 61-4 112-6 114-4 2 1-6 10-18 20-13 11-24 34-27 58l-6 40 30-45c32-50 62-68 127-77 77-10 150 27 176 89 7 18 15 26 21 20 12-12-16-80-40-98-18-13 22-12 166 2 76 8 107 49 91 122-4 17-3 32 1 32 14 0 32-69 26-96-11-43 4-25 36 42 17 36 33 85 36 110 5 52 22 49 22-4-1-57-18-119-45-162-14-22-25-43-25-46 0-4 19-4 43-1 33 4 50 14 80 48 38 43 48 39 22-11-35-68-113-91-270-79-111 9-214-5-193-26 2-3 35-12 71-21 37-9 67-22 67-27 0-6-10-21-22-34-30-32-75-31-90 2-6 14-18 25-26 25-11 0-13-8-7-36 8-44-4-78-58-161-36-56-44-63-73-63s-34 4-45 38c-6 20-15 42-19 47-21 26-39 117-29 142 5 15 7 34 4 42-6 13-10 12-26-8-10-13-19-29-19-37 0-23-70-18-97 8-35 33-28 44 37 58 33 7 68 18 77 25 16 12 13 14-22 21-44 8-58 9-217 4-94-2-113 0-153 20-47 23-68 46-79 90-6 23-4 21 26-11 18-20 43-42 55-48 24-12 76-15 71-3-2 4-15 30-30 57-28 55-45 149-32 186 7 20 9 15 16-31 5-30 22-83 39-117zm347-418c17-47 32-90 32-95 0-6 26-10 58-10h57l45 70c25 38 48 69 51 70 3 0 9-37 13-82l7-81-46-91c-64-128-135-221-135-176 0 26-85 221-121 279l-40 64 18 68c9 38 20 69 23 69s20-38 38-85zm-51-172c47-88 87-192 104-273l12-55 51 57c29 31 67 84 86 118 48 83 57 96 65 88 4-3 7-53 8-110 2-91-1-112-27-183-70-196-193-381-263-398-22-5-23-3-23 71 0 95-26 211-81 373-37 108-42 136-43 214-1 85 1 93 29 132 17 23 33 42 36 43 3 0 24-35 46-77zm-411-39c15-12 16-16 5-21-8-3-34-24-57-45l-43-39-15 23c-9 13-19 38-22 55-5 25-2 32 12 36 42 11 101 6 120-9zm258-76c9-79 25-141 77-298 54-163 63-287 30-423-18-74-22-115-20-255l1-167-39-3-40-3-8 128c-5 70-9 198-10 283-1 106-6 180-18 236-10 44-19 112-20 150-2 56-5 69-19 72-16 3-18-6-18-73 0-43 6-103 14-134s17-73 21-94c6-37 6-38-22-31-15 4-50 16-77 27-43 18-52 28-74 76s-26 70-27 156c0 98 1 102 43 185 54 110 154 228 193 230 4 0 10-28 13-62zm-127 27c2-1-16-26-40-57-110-142-148-292-111-446l7-27-28 25c-15 14-38 44-52 67-24 41-24 44-14 155 5 62 15 129 21 149 21 72 126 153 185 142 17-3 31-7 32-8zm601-418c-3-35-10-72-16-83-6-10-33-59-60-109-34-61-52-107-56-143-7-56-36-110-79-150l-24-23 4 68c3 37 0 87-5 109-9 41-9 42 49 110 61 71 122 168 154 242 27 60 39 53 33-21zm-776-137c28-27 59-52 68-55 26-8 30-27 19-96-11-71-35-122-74-162-33-32-39-33-64-8-24 24-36 80-26 124 4 17 9 80 12 140 3 59 7 107 9 107 3 0 28-22 56-50zm248-130c4 0 7-39 6-87-2-73-7-98-30-146-28-61-46-142-46-214 0-43 0-43-36-43h-36l8 43c4 23 8 96 8 162 1 117 2 121 29 149 15 17 36 56 45 88 12 40 21 57 30 53 8-3 17-5 22-5zm-360-160c0-10 15-35 34-54 31-34 34-41 33-99-1-34 2-88 7-119l7-58h-29c-30 0-30 1-47 91-22 124-32 275-17 265 7-4 12-16 12-26zm740-185c0-69 0-128 0-132 0-5-15-9-33-11l-34-3-11 98-11 97 37 37c20 20 40 37 45 38 4 0 7-55 7-124z" transform="matrix(.1 0 0 -.1 0 368)"/></svg>